# xmcd
#
# Track frame offsets:
#	150
#	12615
#	29322
#	42974
#	53212
#	67192
#	90702
#	106158
#	124547
#	137458
#	154021
#	167182
#	183707
#
# Disc length: 2624 seconds
#
# Revision: 1
# Processed by: cddbd v1.5.2PL0 Copyright (c) Steve Scherf et al.
# Submitted via: audiograbber 1.83.01
#
DISCID=af0a3e0d
DTITLE=Baroque Blues Band - Baroque Blues Band
DYEAR=1999
DGENRE=Blues
TTITLE0=Johnny B. Goode
TTITLE1=Forty Days and Forty Nights
TTITLE2=You Can't Judge a Book
TTITLE3=No Particular Place To Go
TTITLE4=Walk Myself On Home
TTITLE5=Wee Baby Blues
TTITLE6=Deep River Blues
TTITLE7=Pourquoi m'as-tu quitté?
TTITLE8=Louisiana Belle
TTITLE9=Népenthèsis
TTITLE10=Louis Collins
TTITLE11=Midnight Special
TTITLE12=Grinder
EXTD=Pierre Dallaire: guitares et voix\nMaurice Comtois "Woogie": piano, orgue,
EXTD=mélodion et voix\nGuy Dallaire: basse et voix\nMichel Jetté: batterie et 
EXTD=percussion\nfreedb submitted by BigueNique@yahoo.ca\nhttp://radio.fiatlux.
EXTD=tk
EXTT0=
EXTT1=
EXTT2=
EXTT3=
EXTT4=
EXTT5=
EXTT6=
EXTT7=
EXTT8=
EXTT9=
EXTT10=
EXTT11=
EXTT12=
PLAYORDER=
